<mxfile host="app.diagrams.net" modified="2022-07-20T09:38:32.522Z" agent="5.0 (X11)" etag="gGF-Eqf7HaLzWgp1WNdh" version="20.1.3" type="github">
  <diagram id="HKzKxvtynTPPrGt9LeTu" name="Page-1">
    <mxGraphModel dx="796" dy="481" grid="1" gridSize="10" guides="1" tooltips="1" connect="1" arrows="1" fold="1" page="1" pageScale="1" pageWidth="827" pageHeight="1169" math="0" shadow="0">
      <root>
        <mxCell id="0" />
        <mxCell id="1" parent="0" />
        <mxCell id="fYCmhGlrr-tS-subrrdt-4" value="" style="line;strokeWidth=2;html=1;fontFamily=Verdana;fillColor=#d5e8d4;strokeColor=#82b366;fontColor=#66FFFF;" vertex="1" parent="1">
          <mxGeometry x="40" y="350" width="730" height="80" as="geometry" />
        </mxCell>
        <mxCell id="fYCmhGlrr-tS-subrrdt-5" value="Main" style="text;html=1;resizable=0;autosize=1;align=center;verticalAlign=middle;points=[];fillColor=none;strokeColor=none;rounded=0;fontFamily=Verdana;fontSize=16;fontColor=#66FFFF;" vertex="1" parent="1">
          <mxGeometry x="20" y="360" width="60" height="30" as="geometry" />
        </mxCell>
        <mxCell id="fYCmhGlrr-tS-subrrdt-12" value="" style="line;strokeWidth=2;direction=south;html=1;fontFamily=Verdana;fontSize=16;rotation=-20;fillColor=#d5e8d4;strokeColor=#82b366;" vertex="1" parent="1">
          <mxGeometry x="160" y="390" width="10" height="70" as="geometry" />
        </mxCell>
        <mxCell id="fYCmhGlrr-tS-subrrdt-13" value="" style="line;strokeWidth=2;html=1;fontFamily=Verdana;fontSize=16;fillColor=#d5e8d4;strokeColor=#82b366;" vertex="1" parent="1">
          <mxGeometry x="170" y="450" width="600" height="10" as="geometry" />
        </mxCell>
        <mxCell id="fYCmhGlrr-tS-subrrdt-14" value="" style="line;strokeWidth=2;direction=south;html=1;fontFamily=Verdana;fontSize=16;rotation=-15;fillColor=#d5e8d4;strokeColor=#82b366;" vertex="1" parent="1">
          <mxGeometry x="228.66" y="450.18" width="10" height="79.66" as="geometry" />
        </mxCell>
        <mxCell id="fYCmhGlrr-tS-subrrdt-15" value="" style="line;strokeWidth=2;html=1;fontFamily=Verdana;fontSize=16;fillColor=#d5e8d4;strokeColor=#82b366;" vertex="1" parent="1">
          <mxGeometry x="238.66" y="519.84" width="381.34" height="10" as="geometry" />
        </mxCell>
        <mxCell id="fYCmhGlrr-tS-subrrdt-18" value="" style="endArrow=classic;html=1;fontFamily=Verdana;fontSize=16;fontColor=#66FFFF;entryX=0.863;entryY=0.8;entryDx=0;entryDy=0;entryPerimeter=0;strokeColor=none;rounded=0;shadow=0;" edge="1" parent="1" target="fYCmhGlrr-tS-subrrdt-13">
          <mxGeometry width="50" height="50" relative="1" as="geometry">
            <mxPoint x="620" y="519.84" as="sourcePoint" />
            <mxPoint x="670" y="469.84" as="targetPoint" />
          </mxGeometry>
        </mxCell>
        <mxCell id="fYCmhGlrr-tS-subrrdt-19" value="" style="shape=flexArrow;endArrow=classic;html=1;rounded=0;shadow=0;fontFamily=Verdana;fontSize=16;fontColor=#66FFFF;fillColor=#fff2cc;strokeColor=#d6b656;" edge="1" parent="1">
          <mxGeometry width="50" height="50" relative="1" as="geometry">
            <mxPoint x="620" y="519.84" as="sourcePoint" />
            <mxPoint x="690" y="460" as="targetPoint" />
          </mxGeometry>
        </mxCell>
        <mxCell id="fYCmhGlrr-tS-subrrdt-20" value="" style="ellipse;shape=doubleEllipse;whiteSpace=wrap;html=1;aspect=fixed;fontFamily=Verdana;fontSize=16;strokeColor=#82b366;fillColor=#d5e8d4;" vertex="1" parent="1">
          <mxGeometry x="310" y="509.84000000000003" width="30" height="30" as="geometry" />
        </mxCell>
        <mxCell id="fYCmhGlrr-tS-subrrdt-21" value="" style="ellipse;shape=doubleEllipse;whiteSpace=wrap;html=1;aspect=fixed;fontFamily=Verdana;fontSize=16;strokeColor=#82b366;fillColor=#d5e8d4;" vertex="1" parent="1">
          <mxGeometry x="399" y="509.84000000000003" width="30" height="30" as="geometry" />
        </mxCell>
        <mxCell id="fYCmhGlrr-tS-subrrdt-22" value="" style="ellipse;shape=doubleEllipse;whiteSpace=wrap;html=1;aspect=fixed;fontFamily=Verdana;fontSize=16;strokeColor=#82b366;fillColor=#d5e8d4;" vertex="1" parent="1">
          <mxGeometry x="530" y="509.84" width="30.16" height="30.16" as="geometry" />
        </mxCell>
        <mxCell id="fYCmhGlrr-tS-subrrdt-24" value="dev" style="text;html=1;resizable=0;autosize=1;align=center;verticalAlign=middle;points=[];fillColor=none;strokeColor=none;rounded=0;fontFamily=Verdana;fontSize=16;fontColor=#66FFFF;" vertex="1" parent="1">
          <mxGeometry x="110" y="410" width="50" height="30" as="geometry" />
        </mxCell>
        <mxCell id="fYCmhGlrr-tS-subrrdt-25" value="add" style="text;html=1;resizable=0;autosize=1;align=center;verticalAlign=middle;points=[];fillColor=none;strokeColor=none;rounded=0;fontFamily=Verdana;fontSize=16;fontColor=#66FFFF;" vertex="1" parent="1">
          <mxGeometry x="178.66" y="479.84" width="50" height="30" as="geometry" />
        </mxCell>
        <mxCell id="fYCmhGlrr-tS-subrrdt-26" value="0.1add" style="text;html=1;resizable=0;autosize=1;align=center;verticalAlign=middle;points=[];fillColor=none;strokeColor=none;rounded=0;fontFamily=Verdana;fontSize=16;fontColor=#66FFFF;" vertex="1" parent="1">
          <mxGeometry x="280" y="540" width="80" height="30" as="geometry" />
        </mxCell>
        <mxCell id="fYCmhGlrr-tS-subrrdt-27" value="0.2add" style="text;html=1;resizable=0;autosize=1;align=center;verticalAlign=middle;points=[];fillColor=none;strokeColor=none;rounded=0;fontFamily=Verdana;fontSize=16;fontColor=#66FFFF;" vertex="1" parent="1">
          <mxGeometry x="374" y="539.84" width="80" height="30" as="geometry" />
        </mxCell>
        <mxCell id="fYCmhGlrr-tS-subrrdt-28" value="0.3add" style="text;html=1;resizable=0;autosize=1;align=center;verticalAlign=middle;points=[];fillColor=none;strokeColor=none;rounded=0;fontFamily=Verdana;fontSize=16;fontColor=#66FFFF;" vertex="1" parent="1">
          <mxGeometry x="500" y="539.84" width="80" height="30" as="geometry" />
        </mxCell>
        <mxCell id="fYCmhGlrr-tS-subrrdt-29" value="Merged" style="text;html=1;resizable=0;autosize=1;align=center;verticalAlign=middle;points=[];fillColor=none;strokeColor=none;rounded=0;fontFamily=Verdana;fontSize=16;fontColor=#66FFFF;" vertex="1" parent="1">
          <mxGeometry x="640" y="499.84000000000003" width="90" height="30" as="geometry" />
        </mxCell>
      </root>
    </mxGraphModel>
  </diagram>
</mxfile>
